<svg width="33" height="27" viewBox="0 0 33 27" fill="none" xmlns="http://www.w3.org/2000/svg">
<g clip-path="url(#clip0)">
<path d="M16.2256 0C9.36651 0 3.72031 5.18264 3.00415 11.8382L4.57789 12.1036C5.16511 6.20427 10.1532 1.59258 16.2256 1.59258C22.1975 1.59258 27.1207 6.05282 27.8406 11.8117H29.4442C28.7159 5.16887 23.0756 0 16.2256 0Z" fill="#EB00FF"/>
<path fill-rule="evenodd" clip-rule="evenodd" d="M8.11309 9.06265L4.23564 12.4018C3.9977 12.6068 3.64051 12.5784 3.43784 12.3387L0.135116 8.43003C-0.0675563 8.19018 -0.0389659 7.82963 0.198974 7.62471C0.436914 7.4198 0.7941 7.44813 0.996772 7.68798L3.88854 11.0781L7.37915 8.19407C7.61709 7.98917 7.97428 8.01748 8.17695 8.25733C8.37962 8.49718 8.35104 8.85774 8.11309 9.06265Z" fill="#EB00FF"/>
<path d="M16.0731 26.6689C22.9321 26.6689 28.5784 21.4862 29.2946 14.8307L27.7208 14.5652C27.1336 20.4646 22.1455 25.0762 16.0731 25.0762C10.1012 25.0762 5.17804 20.616 4.45813 14.8572H2.85449C3.58278 21.4999 9.2231 26.6689 16.0731 26.6689Z" fill="#EB00FF"/>
<path fill-rule="evenodd" clip-rule="evenodd" d="M24.1857 17.6062L28.0631 14.267C28.3011 14.062 28.6582 14.0904 28.8609 14.3301L32.1636 18.2388C32.3663 18.4786 32.3377 18.8392 32.0998 19.0441C31.8619 19.249 31.5046 19.2207 31.3019 18.9808L28.4102 15.5907L24.9196 18.4747C24.6816 18.6796 24.3245 18.6513 24.1218 18.4114C23.9191 18.1717 23.9477 17.811 24.1857 17.6062Z" fill="#EB00FF"/>
<path fill-rule="evenodd" clip-rule="evenodd" d="M14.2302 8.24225C14.5157 8.59577 14.4606 9.11384 14.107 9.39937L11.7776 11.2809H22.827C23.2815 11.2809 23.6499 11.6492 23.6499 12.1037C23.6499 12.5581 23.2815 12.9265 22.827 12.9265H9.44934C9.1006 12.9265 8.78974 12.7067 8.67353 12.3778C8.55733 12.0491 8.66102 11.6827 8.93233 11.4636L13.073 8.11915C13.4266 7.83361 13.9446 7.88872 14.2302 8.24225ZM8.62651 14.8111C8.62651 14.3566 8.99491 13.9883 9.44934 13.9883H22.827C23.1758 13.9883 23.4866 14.208 23.6028 14.5369C23.7191 14.8657 23.6153 15.2321 23.344 15.4512L19.2033 18.7956C18.8498 19.0812 18.3317 19.026 18.0463 18.6725C17.7607 18.319 17.8158 17.8009 18.1693 17.5153L20.4987 15.634H9.44934C8.99491 15.634 8.62651 15.2656 8.62651 14.8111Z" fill="#EB00FF"/>
</g>
<defs>
<clipPath id="clip0">
<rect width="32.73" height="26.6689" fill="white"/>
</clipPath>
</defs>
</svg>
