<svg width="28" height="34" viewBox="0 0 28 34" fill="none" xmlns="http://www.w3.org/2000/svg">
<path fill-rule="evenodd" clip-rule="evenodd" d="M14.0072 0.333496C9.1172 0.333496 5.15304 4.31456 5.15304 9.22545C5.15304 14.1363 9.1172 18.1174 14.0072 18.1174C18.8973 18.1174 22.8614 14.1363 22.8614 9.22545C22.8614 4.31456 18.8973 0.333496 14.0072 0.333496ZM14.0072 2.74596C17.5704 2.74596 20.4589 5.64678 20.4589 9.22513C20.4589 12.8035 17.5704 15.7043 14.0072 15.7043C10.4441 15.7043 7.55558 12.8035 7.55558 9.22513C7.55558 5.64678 10.4441 2.74596 14.0072 2.74596ZM10.3835 21.7018C9.0873 21.7918 7.7771 21.9768 6.48474 22.2538C3.99037 22.7676 1.99484 23.7942 1.14548 25.5001C0.825127 26.1673 0.664064 26.8817 0.666782 27.6049C0.665821 28.3229 0.82558 29.0381 1.13444 29.6925C1.94999 31.3788 3.71309 32.3331 6.09382 32.8621L6.52029 32.9511C7.77756 33.2348 9.08815 33.4257 10.4075 33.5154C10.5199 33.5483 10.7877 33.579 11.08 33.5939L11.3204 33.6029C11.4441 33.6058 11.5844 33.6065 11.7934 33.6065C13.6898 33.7108 15.6558 33.6804 17.6126 33.5138C18.6554 33.4425 19.7052 33.3061 20.7463 33.1063L21.5252 32.9446C24.096 32.4374 26.021 31.473 26.8644 29.6944C27.4897 28.3738 27.4897 26.8415 26.8647 25.5216C26.0234 23.7474 24.1229 22.791 21.5057 22.2518C20.4789 22.0326 19.4354 21.8704 18.3845 21.7668L17.6163 21.7018C15.21 21.4895 12.7898 21.4895 10.3835 21.7018ZM17.406 24.1057L17.4272 24.1074C18.6332 24.1923 19.8319 24.3615 21.0145 24.614C22.9586 25.0145 24.2779 25.6784 24.6953 26.5587C25.0095 27.2224 25.0095 27.9937 24.695 28.658C24.305 29.4805 23.1201 30.1159 21.4075 30.5042L21.0326 30.5836C19.8267 30.8527 18.632 31.0261 17.4293 31.1085C15.5633 31.2672 13.7083 31.2959 11.858 31.1958L11.202 31.1846C11.0199 31.1753 10.8664 31.1577 10.7242 31.1292C9.59796 31.0441 8.58453 30.9097 7.60053 30.7146L7.01301 30.5902C5.06293 30.208 3.732 29.5412 3.30048 28.649C3.14949 28.329 3.06883 27.9679 3.06932 27.6023C3.06797 27.2387 3.14756 26.8857 3.30206 26.5638C3.72163 25.7214 5.13208 24.9958 6.97685 24.6157C8.16798 24.3605 9.36611 24.1913 10.5716 24.1074C12.8601 23.9058 15.1396 23.9058 17.406 24.1057Z" fill="#02C751"/>
</svg>
