<svg width="40" height="40" viewBox="0 0 40 40" fill="none" xmlns="http://www.w3.org/2000/svg">
<path fill-rule="evenodd" clip-rule="evenodd" d="M13.5628 36.6668C12.8762 36.6668 12.2245 36.6135 11.6112 36.5085L11.2478 36.4402C7.29618 35.6185 4.99951 32.5918 4.99951 27.9852V12.0152C4.99951 11.4585 5.03285 10.9252 5.09951 10.4152C5.68118 5.94016 8.75618 3.3335 13.5628 3.3335H26.4378C31.7645 3.3335 34.9495 6.5335 34.9995 11.8868V12.0152V27.9852C34.9995 33.4135 31.8062 36.6668 26.4378 36.6668H13.5628ZM13.5629 5.76186C9.46952 5.76186 7.39452 7.86686 7.39452 12.0152V27.9852C7.39452 32.1335 9.46952 34.2385 13.5629 34.2385H26.4229C30.5145 34.2385 32.5762 32.1335 32.5762 27.9852V12.0152C32.5762 7.86686 30.5145 5.76186 26.4229 5.76186H13.5629ZM27.1762 27.0566C27.1762 26.39 26.6445 25.85 25.9878 25.85H13.9695C13.3128 25.85 12.7795 26.39 12.7795 27.0566C12.7795 27.7233 13.3128 28.2633 13.9695 28.2633H25.9878C26.6445 28.2633 27.1762 27.7233 27.1762 27.0566ZM25.9879 18.785C26.4462 18.735 26.8945 18.955 27.1395 19.35C27.3845 19.7483 27.3845 20.2517 27.1395 20.65C26.8945 21.045 26.4462 21.265 25.9879 21.215H13.9695C13.3595 21.145 12.8979 20.6233 12.8979 20C12.8979 19.3767 13.3595 18.8533 13.9695 18.785H25.9879ZM19.6278 12.9518C19.6278 12.3285 19.1661 11.8052 18.5561 11.7368H13.9845C13.3728 11.8052 12.9111 12.3285 12.9111 12.9518C12.9111 13.5735 13.3728 14.0968 13.9845 14.1652H18.5561C19.1661 14.0968 19.6278 13.5735 19.6278 12.9518Z" fill="#409CF0"/>
</svg>
