<svg width="40" height="40" viewBox="0 0 40 40" fill="none" xmlns="http://www.w3.org/2000/svg">
<path fill-rule="evenodd" clip-rule="evenodd" d="M6.61444 23.1931L22.7654 7.36119C24.8433 5.32426 28.2137 5.32426 30.2917 7.36119L32.449 9.47582C34.5269 11.5127 34.5269 14.8166 32.449 16.8535L16.2343 32.7478C15.3072 33.6567 14.0501 34.1667 12.738 34.1667H6.09757C5.48069 34.1667 4.98497 33.6685 5.00035 33.064L5.16739 26.4959C5.2006 25.2545 5.71878 24.071 6.61444 23.1931ZM30.8968 10.9973L28.7395 8.88266C27.5188 7.68605 25.5383 7.68605 24.3175 8.88266L23.0639 10.1116L29.6438 16.5601L30.8968 15.3319C32.1175 14.1353 32.1175 12.1939 30.8968 10.9973ZM8.16662 24.7145L21.5117 11.6331L28.0916 18.0817L14.6821 31.2262L14.5038 31.3863C14.0112 31.7909 13.387 32.0149 12.738 32.0149L7.2224 32.0141L7.36178 26.5509C7.38022 25.8616 7.66876 25.2026 8.16662 24.7145ZM35 33.091C35 32.4968 34.5086 32.0151 33.9024 32.0151H22.4516L22.3027 32.0249C21.767 32.0962 21.3541 32.5463 21.3541 33.091C21.3541 33.6852 21.8455 34.1669 22.4516 34.1669H33.9024L34.0514 34.1571C34.5871 34.0858 35 33.6357 35 33.091Z" fill="#F7941E"/>
</svg>
