<?xml version="1.0" encoding="iso-8859-1"?>
<!-- Uploaded to: SVG Repo, www.svgrepo.com, Generator: SVG Repo Mixer Tools -->
<!DOCTYPE svg PUBLIC "-//W3C//DTD SVG 1.1//EN" "http://www.w3.org/Graphics/SVG/1.1/DTD/svg11.dtd">
<svg height="800px" width="800px" version="1.1" id="Capa_1" xmlns="http://www.w3.org/2000/svg" xmlns:xlink="http://www.w3.org/1999/xlink" 
	 viewBox="0 0 236.816 236.816" xml:space="preserve">
<g>
	<path style="fill:#000002;" d="M40.062,71.278h50c4.143,0,7.5-3.357,7.5-7.5s-3.357-7.5-7.5-7.5h-50c-4.143,0-7.5,3.357-7.5,7.5
		S35.919,71.278,40.062,71.278z"/>
	<path style="fill:#000002;" d="M40.062,106.553h109.331c4.143,0,7.5-3.357,7.5-7.5c0-4.142-3.357-7.5-7.5-7.5H40.062
		c-4.143,0-7.5,3.358-7.5,7.5C32.562,103.195,35.919,106.553,40.062,106.553z"/>
	<path style="fill:#000002;" d="M198.113,143.124l-19.474,22.646c-0.195,0.228-0.425,0.286-0.582,0.296
		c-0.153,0.006-0.393-0.021-0.615-0.225l-13.508-12.278c-2.046-1.859-5.206-1.706-7.063,0.336c-1.857,2.043-1.706,5.205,0.337,7.063
		l13.507,12.278c2.02,1.837,4.582,2.827,7.277,2.827c0.225,0,0.451-0.007,0.678-0.02c2.941-0.181,5.623-1.515,7.552-3.758
		l19.474-22.645c1.801-2.094,1.563-5.25-0.531-7.051C203.071,140.793,199.915,141.029,198.113,143.124z"/>
	<path style="fill:#000002;" d="M236.735,159.607c0-28.057-20.933-51.303-47.998-54.978V69.369c0-7.48-4.003-17.096-9.311-22.367
		L141.374,9.223C136.078,3.965,126.456,0,118.993,0H17.582c-9.649,0-17.5,7.851-17.5,17.5v201.816c0,9.649,7.851,17.5,17.5,17.5
		h153.655c9.649,0,17.5-7.851,17.5-17.5v-4.731C215.802,210.91,236.735,187.664,236.735,159.607z M167.479,56.278h-30.424
		c-1.355,0-2.5-1.145-2.5-2.5V23.59L167.479,56.278z M171.237,221.816H17.582c-1.356,0-2.5-1.145-2.5-2.5V17.5
		c0-1.355,1.144-2.5,2.5-2.5h101.411c0.181,0,0.371,0.01,0.563,0.021v38.757c0,9.649,7.851,17.5,17.5,17.5h36.682v33.352
		c-15.26,2.072-28.564,10.361-37.271,22.235c-0.244-0.024-0.491-0.038-0.741-0.038H40.062c-4.143,0-7.5,3.357-7.5,7.5
		c0,4.143,3.357,7.5,7.5,7.5h88.616c-1.895,5.586-2.938,11.562-2.938,17.78c0,8.011,1.72,15.623,4.788,22.508H99.393
		c-4.143,0-7.5,3.357-7.5,7.5c0,4.143,3.357,7.5,7.5,7.5h36.331c1.37,0,2.649-0.373,3.755-1.014
		c8.623,9.855,20.662,16.637,34.258,18.483v4.731C173.737,220.672,172.592,221.816,171.237,221.816z M181.237,200.105
		c-22.33,0-40.497-18.166-40.497-40.498c0-22.331,18.167-40.498,40.497-40.498c22.331,0,40.498,18.167,40.498,40.498
		C221.735,181.939,203.568,200.105,181.237,200.105z"/>
</g>
</svg>