<svg width="16" height="16" viewBox="0 0 16 16" fill="none" xmlns="http://www.w3.org/2000/svg">
<path fill-rule="evenodd" clip-rule="evenodd" d="M5.17332 4.14234C5.17332 3.4177 4.57646 2.82777 3.84157 2.82777C3.10747 2.82777 2.50983 3.4177 2.50983 4.14234C2.50983 4.86697 3.10747 5.4569 3.84157 5.4569C4.57646 5.4569 5.17332 4.86697 5.17332 4.14234ZM6.34976 4.14235C6.34976 5.50723 5.22507 6.61819 3.84157 6.61819C2.45884 6.61819 1.33337 5.50723 1.33337 4.14235C1.33337 2.77746 2.45884 1.6665 3.84157 1.6665C5.22507 1.6665 6.34976 2.77746 6.34976 4.14235ZM14.6667 4.14251C14.6667 3.822 14.4032 3.56187 14.0785 3.56187H9.25503C8.93033 3.56187 8.66681 3.822 8.66681 4.14251C8.66681 4.46302 8.93033 4.72315 9.25503 4.72315H14.0785C14.4032 4.72315 14.6667 4.46302 14.6667 4.14251ZM10.8265 11.8573C10.8265 12.5819 11.4234 13.1719 12.1583 13.1719C12.8932 13.1719 13.49 12.5819 13.49 11.8573C13.49 11.1319 12.8932 10.5427 12.1583 10.5427C11.4234 10.5427 10.8265 11.1319 10.8265 11.8573ZM9.65008 11.8573C9.65008 10.4917 10.7748 9.38147 12.1583 9.38147C13.5418 9.38147 14.6665 10.4917 14.6665 11.8573C14.6665 13.2222 13.5418 14.3332 12.1583 14.3332C10.7748 14.3332 9.65008 13.2222 9.65008 11.8573ZM1.92216 11.2765H6.74482C7.06952 11.2765 7.33304 11.5366 7.33304 11.8571C7.33304 12.1776 7.06952 12.4377 6.74482 12.4377H1.92216C1.59746 12.4377 1.33393 12.1776 1.33393 11.8571C1.33393 11.5366 1.59746 11.2765 1.92216 11.2765Z" fill="#B4B8D7"/>
</svg>
