<svg width="26" height="26" viewBox="0 0 26 26" fill="none" xmlns="http://www.w3.org/2000/svg">
<g filter="url(#filter0_d)">
<path fill-rule="evenodd" clip-rule="evenodd" d="M18.5597 10.1062C19.0063 10.4522 19.2803 10.9662 19.327 11.5255L19.3337 11.6595V17.0655C19.3337 18.4588 18.233 19.5922 16.8537 19.6655H15.527C14.893 19.6528 14.3803 19.1595 14.3337 18.5395L14.327 18.4455V16.5395C14.327 16.3322 14.173 16.1595 13.967 16.1255L13.907 16.1188H12.1263C11.9137 16.1255 11.7403 16.2788 11.7137 16.4788L11.707 16.5395V18.4395C11.707 18.4788 11.6997 18.5255 11.6937 18.5588L11.687 18.5728L11.6797 18.6188C11.6003 19.1862 11.1337 19.6188 10.5537 19.6595L10.467 19.6655H9.27366C7.88033 19.6655 6.74033 18.5728 6.66699 17.1988V11.6595C6.67299 11.0922 6.92033 10.5655 7.33366 10.1988L11.487 6.85882C12.3337 6.18616 13.5203 6.15949 14.393 6.77882L14.5003 6.85882L18.5597 10.1062ZM18.3997 17.1722L18.407 17.0655V11.6655C18.3997 11.3795 18.2803 11.1122 18.0737 10.9128L17.987 10.8388L13.9203 7.58549C13.4137 7.17882 12.6937 7.15949 12.1603 7.51216L12.0597 7.58549L8.00633 10.8528C7.77366 11.0255 7.63366 11.2855 7.60033 11.5588L7.59299 11.6655V17.0655C7.59299 17.9522 8.28632 18.6788 9.16699 18.7322H10.467C10.6137 18.7322 10.7403 18.6328 10.7597 18.4928L10.7737 18.3728L10.7803 18.3388V16.5395C10.7803 15.8262 11.327 15.2462 12.027 15.1922H13.907C14.6197 15.1922 15.1997 15.7395 15.2537 16.4395V18.4455C15.2537 18.5855 15.3537 18.7062 15.487 18.7322H16.7263C17.6197 18.7322 18.3463 18.0462 18.3997 17.1722Z" fill="#F7941E"/>
</g>
<defs>
<filter id="filter0_d" x="0.666992" y="0.333496" width="24.6667" height="25.332" filterUnits="userSpaceOnUse" color-interpolation-filters="sRGB">
<feFlood flood-opacity="0" result="BackgroundImageFix"/>
<feColorMatrix in="SourceAlpha" type="matrix" values="0 0 0 0 0 0 0 0 0 0 0 0 0 0 0 0 0 0 127 0" result="hardAlpha"/>
<feOffset/>
<feGaussianBlur stdDeviation="3"/>
<feColorMatrix type="matrix" values="0 0 0 0 0.968627 0 0 0 0 0.580392 0 0 0 0 0.117647 0 0 0 1 0"/>
<feBlend mode="normal" in2="BackgroundImageFix" result="effect1_dropShadow"/>
<feBlend mode="normal" in="SourceGraphic" in2="effect1_dropShadow" result="shape"/>
</filter>
</defs>
</svg>
