<svg width="100" height="100" viewBox="0 0 24 24" fill="none" xmlns="http://www.w3.org/2000/svg">
    <path d="M14 2H6C4.89543 2 4 2.89543 4 4V20C4 21.1046 4.89543 22 6 22H18C19.1046 22 20 21.1046 20 20V8L14 2ZM13 9V3.5L18.5 9H13ZM6 4H12V10H18V20H6V4Z" fill="black"/>
    <path d="M8 14C8 13.4477 8.44772 13 9 13H15C15.5523 13 16 13.4477 16 14V16C16 16.5523 15.5523 17 15 17H9C8.44772 17 8 16.5523 8 16V14ZM10 15V16H14V15H10Z" fill="black"/>
    <path d="M12 12L14 14L18 10" stroke="black" stroke-width="2" stroke-linecap="round" stroke-linejoin="round"/>
</svg>
