<svg version="1.1" id="Layer_1" xmlns="http://www.w3.org/2000/svg" x="0" y="0" viewBox="0 0 281.2 281.2" style="enable-background:new 0 0 281.2 281.2" xml:space="preserve">
    <style>
        .st1{fill:#fff}.st3{fill:#3f4347}.st9{fill:url(#SVGID_8_)}.st10{fill:url(#SVGID_9_)}.st11{fill:url(#SVGID_10_)}.st12{fill:url(#SVGID_11_)}.st13{fill:url(#SVGID_12_)}.st14{fill:url(#SVGID_13_)}.st15{fill:url(#SVGID_14_)}.st16{fill:url(#SVGID_15_)}.st17{fill:url(#SVGID_16_)}.st18{fill:url(#SVGID_17_)}.st19{fill:url(#SVGID_18_)}.st20{fill:url(#SVGID_19_)}.st21{fill:url(#SVGID_20_)}.st22{fill:url(#SVGID_21_)}.st23{fill:url(#SVGID_22_)}.st24{fill:url(#SVGID_23_)}.st25{fill:url(#SVGID_24_)}.st26{fill:url(#SVGID_25_)}.st27{fill:url(#SVGID_26_)}.st28{fill:url(#SVGID_27_)}.st29{fill:url(#SVGID_28_)}.st30{fill:url(#SVGID_29_)}.st31{fill:url(#SVGID_30_)}.st32{fill:url(#SVGID_31_)}.st33{fill:url(#SVGID_32_)}.st34{fill:url(#SVGID_33_)}.st35{fill:url(#SVGID_34_)}.st36{fill:url(#SVGID_35_)}.st37{fill:url(#SVGID_36_)}.st38{fill:url(#SVGID_37_)}.st39{fill:url(#SVGID_38_)}.st40{fill:url(#SVGID_39_)}.st41{fill:#231f20}.st42{fill:url(#SVGID_40_)}.st43{fill:url(#SVGID_41_)}.st44{fill:url(#SVGID_42_)}.st45{fill:url(#SVGID_43_)}.st46{fill:url(#SVGID_44_)}.st47{fill:url(#SVGID_45_)}.st48{fill:url(#SVGID_46_)}.st49{fill:url(#SVGID_47_)}.st50{fill:url(#SVGID_48_)}.st51{fill:url(#SVGID_49_)}.st52{fill:url(#SVGID_50_)}.st53{fill:url(#SVGID_51_)}.st54{fill:url(#SVGID_52_)}.st55{fill:url(#SVGID_53_)}.st56{fill:url(#SVGID_54_)}.st57{fill:url(#SVGID_55_)}.st58{fill:url(#SVGID_56_)}.st59{fill:url(#SVGID_57_)}.st60{fill:url(#SVGID_58_)}
    </style>
    <linearGradient id="SVGID_1_" gradientUnits="userSpaceOnUse" x1="140.623" y1="70.812" x2="140.623" y2="233.864">
        <stop offset="0" style="stop-color:#00b4db"/>
        <stop offset=".503" style="stop-color:#92dfee"/>
        <stop offset="1" style="stop-color:#0177b6"/>
    </linearGradient>
    <path d="M196.5 188.7v-78h-21.8V79.3c0-12.7-5.2-24.4-13.5-32.7-8.3-8.4-20-13.6-32.7-13.5-12.7 0-24.4 5.2-32.7 13.5-8.4 8.3-13.6 20-13.5 32.7v23.4h16v-6.6h-5.8l5.8-8.4v-8.5c0-8.4 3.4-15.9 8.9-21.4 5.5-5.5 13-8.8 21.4-8.9 8.4 0 15.9 3.4 21.4 8.9 5.5 5.5 8.8 13 8.9 21.4v31.4H60.5V223.2c0 6.9 2.8 13.1 7.3 17.6 4.5 4.5 10.8 7.3 17.6 7.3h101.1c9.4 0 18.1-3.8 24.3-10 6.2-6.2 10-14.8 10-24.3v-25.2h-24.3zM183.2 124v64.7H97v34.5c0 3.2-1.3 6.1-3.4 8.2-2.1 2.1-5 3.4-8.2 3.4-2 0-3.9-.5-5.5-1.4-1-.5-1.9-1.2-2.7-2-2.1-2.1-3.4-5-3.4-8.2V124h109.4zm24.2 89.9c0 5.8-2.3 11-6.1 14.8-3.8 3.8-9 6.1-14.8 6.1h-79c1.8-3.5 2.9-7.4 2.9-11.6V202h97.1v11.9z" style="fill:url(#SVGID_1_)"/>
    <linearGradient id="SVGID_2_" gradientUnits="userSpaceOnUse" x1="159.444" y1="70.812" x2="159.444" y2="233.864">
        <stop offset="0" style="stop-color:#00b4db"/>
        <stop offset=".503" style="stop-color:#92dfee"/>
        <stop offset="1" style="stop-color:#0177b6"/>
    </linearGradient>
    <path d="M121.7 215.7h75.5c1.8 0 3.3-1.5 3.3-3.3 0-1.8-1.5-3.3-3.3-3.3h-75.5c-1.8 0-3.3 1.5-3.3 3.3 0 1.8 1.5 3.3 3.3 3.3z" style="fill:url(#SVGID_2_)"/>
    <linearGradient id="SVGID_3_" gradientUnits="userSpaceOnUse" x1="155.389" y1="70.812" x2="155.389" y2="233.864">
        <stop offset="0" style="stop-color:#00b4db"/>
        <stop offset=".503" style="stop-color:#92dfee"/>
        <stop offset="1" style="stop-color:#0177b6"/>
    </linearGradient>
    <path d="M121.7 227.9H189c1.8 0 3.3-1.5 3.3-3.3 0-1.8-1.5-3.3-3.3-3.3h-67.3c-1.8 0-3.3 1.5-3.3 3.3 0 1.8 1.5 3.3 3.3 3.3z" style="fill:url(#SVGID_3_)"/>
    <linearGradient id="SVGID_4_" gradientUnits="userSpaceOnUse" x1="128.496" y1="70.812" x2="128.496" y2="233.864">
        <stop offset="0" style="stop-color:#00b4db"/>
        <stop offset=".503" style="stop-color:#92dfee"/>
        <stop offset="1" style="stop-color:#0177b6"/>
    </linearGradient>
    <path d="m122.2 159.9-5.4 15.7h23.5l-5.4-15.7c3.6-2.1 6-6 6-10.5 0-6.8-5.5-12.3-12.3-12.3-6.8 0-12.3 5.5-12.3 12.3-.1 4.5 2.3 8.4 5.9 10.5z" style="fill:url(#SVGID_4_)"/>
    <linearGradient id="SVGID_5_" gradientUnits="userSpaceOnUse" x1="101.438" y1="228.521" x2="124.454" y2="251.026">
        <stop offset="0" style="stop-color:#29266d"/>
        <stop offset="1" style="stop-color:#29266d;stop-opacity:0"/>
    </linearGradient>
    <path d="M107.5 234.8c-1.2 2.2-2.7 4.3-4.4 6.1-4.5 4.5-10.8 7.3-17.6 7.3h58.7v-13.4h-36.7z" style="fill:url(#SVGID_5_)"/>
    <linearGradient id="SVGID_6_" gradientUnits="userSpaceOnUse" x1="189.84" y1="195.956" x2="189.84" y2="173.597">
        <stop offset="0" style="stop-color:#29266d"/>
        <stop offset="1" style="stop-color:#29266d;stop-opacity:0"/>
    </linearGradient>
    <path style="fill:url(#SVGID_6_)" d="M183.2 165.9h13.4v22.9h-13.4z"/>
    <linearGradient id="SVGID_7_" gradientUnits="userSpaceOnUse" x1="166.738" y1="119.403" x2="166.738" y2="96.025">
        <stop offset="0" style="stop-color:#29266d"/>
        <stop offset="1" style="stop-color:#29266d;stop-opacity:0"/>
    </linearGradient>
    <path style="fill:url(#SVGID_7_)" d="M158.7 87.3h16v23.4h-16z"/>
</svg>
