<svg version="1.0" xmlns="http://www.w3.org/2000/svg" width="3161.333" height="1372" viewBox="0 0 2371 1029">
    <path d="M381 424.5V714h107V547.2l80.8-.5c85.7-.4 91.8-.7 118.7-5.8 76.8-14.4 130.7-51.4 158.4-108.9 13.8-28.6 19.5-55.6 19.4-92-.1-44.9-9.9-79.7-32.1-113-9-13.7-29.8-35.2-43.2-44.7-32.4-23-71.5-37.5-120.1-44.5-15.2-2.1-17.5-2.2-152.1-2.5l-136.8-.4v289.6zm274.5-195.7c34.6 6.3 56.1 16.7 74.3 35.7 12.3 12.7 18.7 24.7 23.9 44.5 3.1 11.7 4.3 37.7 2.4 51.1-3.5 24.7-12.4 43.4-28 59-21.1 21.2-50.5 32.6-92.5 35.9-7.1.5-43.2 1-80.2 1H488V225.9l78.3.4c73.2.4 78.9.6 89.2 2.5zM2034 225v50h-73v83h72.9l.4 120.2c.4 131.4.1 124.4 6.3 146.3 15 53.1 53.1 84.4 113.4 93.2 14.3 2 45.6 2.3 59 .4 18.5-2.6 38.6-8.4 52.3-15.2 5.3-2.6 19.7-12.1 19.7-13 0-.8-28-72.2-28.6-72.8-.2-.2-3.2 1.5-6.7 3.7-12.2 7.7-25.5 11.9-41.6 13.1-37.1 2.8-59.7-10.9-68.4-41.6l-2.2-7.8-.3-113.3-.3-113.2H2255v-83h-118V175h-103v50zM180 192.6l-23.5 5.4 13.5-.4c10.8-.2 14.8-.7 20-2.5 6.7-2.3 17.7-8.1 15-8-.8.1-12.1 2.6-25 5.5zM1141 267.6c-22.6 1.9-43.2 5.8-60 11.4-72.1 23.7-122.8 79.7-139.4 154-8.9 40.3-8.4 86.6 1.4 126 9.9 39.6 29.5 74 57.6 101 16.9 16.3 31.4 26.3 53.7 37 16.3 7.8 30.1 12.7 47.2 16.5 47.3 10.6 96.7 7.6 136.5-8.2 22.8-9 39.5-20.1 56.8-37.4l10.2-10.3V714h98V272h-103v53.4l-5.7-5.5c-28.7-27.8-62.3-44.2-103.3-50.4-10.2-1.5-40.9-2.7-50-1.9zm58 89.9c53.3 11.5 90.3 50.6 100.2 105.5 2.9 16.3 2.9 43.8-.1 60.4-9.6 53.9-46.9 93.5-98.6 104.8-12.8 2.8-38.8 3.5-52 1.4-28.1-4.3-49.4-14.7-69.1-33.8-20.3-19.7-32.2-42.6-37.5-72.5-2.9-16.5-2.9-44 0-60.3 5.2-29.5 16.1-51 36.1-71.1 19.8-20 40.8-30.7 69.5-35.4 11.6-1.9 40.8-1.3 51.5 1zM1706.5 267.6c-38.2 3-68.2 10.7-98 25.3-68.2 33.5-109.9 92.1-120.7 169.6-1.9 13.5-1.6 50.3.6 65 8 55.9 34.2 103.6 75.6 137.9 50.9 42.3 123.4 61.4 197 52 57.2-7.3 105.6-33.8 136.4-74.8 6.1-8.1 16.9-25.7 16.2-26.4-.3-.2-18.1-10.7-39.8-23.3l-39.3-23-1.5 2.3c-21.9 33.1-52.3 52.4-90.9 57.9-10.8 1.5-36.9.7-47.6-1.6-19.4-4-37.5-11.9-52.4-22.7-14.1-10.3-28.9-28.1-37.4-44.8-19.4-38.6-19-98.5 1-137.3 13.5-26.1 37.2-47.7 64.5-58.9 29.2-11.8 67.5-13 97.8-2.8 23.4 7.8 46.1 25 61 46.2 2.8 4 5.4 7.3 5.8 7.3.4 0 18.4-10.3 40-22.9l39.2-22.8-3.6-6.7c-15.1-27.2-40-52.3-67-67.4-24.5-13.7-50.7-22.1-81.9-26.2-11.6-1.5-44.8-2.7-55-1.9zM115 493v221h104V272H115v221zM539 867.5v82.6l13.8-.3 13.7-.3.5-36.5.5-36.5 2.8-5.7c5.3-10.9 15.6-16.8 29.1-16.8 12.9 0 21.3 4.8 26 14.9 2 4.4 2.1 6.4 2.4 42.8l.3 38.3h28l-.3-41.3c-.4-38.6-.5-41.6-2.5-47.4-6.1-18.3-19.2-28.7-39-31.2-16.7-2.1-33.7 2.2-43.8 11l-3.5 3.1V785h-28v82.5zM1181 815.1v30.1l-4.6-4.1c-8.9-7.8-20.2-11.5-34.9-11.4-23.5.2-43 11.9-52.3 31.5-5 10.3-6.2 16.1-6.2 29.1 0 18.3 4.7 31.1 15.6 42.7 10.5 11.1 22.9 16.7 39.6 17.7 16.1 1 29.3-2.9 39.1-11.6l4.7-4.3v15.3l13.3-.3 13.2-.3.3-82.3.2-82.2h-28v30.1zm-20.7 40.7c6.5 2.9 14.2 10.4 17.4 17.1 2.5 5.1 2.8 6.6 2.8 17.1 0 10.4-.3 12-2.7 17.2-3.2 6.9-9.6 13.5-16.3 16.8-4.4 2.2-6.4 2.5-15.5 2.5-8.9 0-11.2-.3-15.1-2.3-7.4-3.6-12.5-8.7-16.1-16-3.2-6.4-3.3-7.2-3.3-18.2 0-10.7.2-11.9 2.9-17.4 4.7-9.6 12.5-16.1 22.3-18.6 5.9-1.5 18.4-.5 23.6 1.8zM2105.2 867.2l.3 82.3 13.8.3 13.7.3V785h-28l.2 82.2zM115.2 871.7l.3 77.8 14.3.3 14.2.3V794h-29l.2 77.7zM191 872v78.1l14.3-.3 14.2-.3.3-22.1.2-22.1 24.8-.6c20.7-.4 26-.9 32.7-2.6 27.4-7.2 41.9-23.9 43.2-49.6 1.4-27.8-12.8-47.2-40.9-55.7-6.9-2-9.5-2.2-48-2.6l-40.8-.3V872zm72.5-53c12.6 1.9 21.6 7.7 25.9 17 3.1 6.6 2.9 20.6-.3 27.3-2.9 5.9-8.8 11-16 13.9-5.1 2-7.7 2.3-29.3 2.6l-23.8.4V818h18.3c10 0 21.3.5 25.2 1zM452.4 830c-19.5 2.1-34.2 10.6-39.6 22.8-2.5 5.6-3.5 17-1.9 22.7 1.7 6.3 6.4 12.8 11.7 16.3 6.3 4.2 13.8 6.5 33.8 10.1 18.2 3.4 21.1 4.3 24.4 7.3 2.9 2.8 3.1 9.5.2 12.6-4.3 4.6-7.9 5.6-20.6 6-14.2.5-24.1-1.5-36.1-7.2l-7.2-3.5-4.4 8.2c-2.5 4.5-5 9.2-5.6 10.4-1.1 2.1-.7 2.5 6.1 5.9 3.9 2 11.5 4.8 16.7 6.2 8.4 2.2 11.6 2.5 26.1 2.6 17.9.1 24.4-1.1 34.4-6.1 6.2-3 14-10.3 16.9-15.8 1.9-3.4 2.2-5.6 2.2-14.5 0-11.8-.9-14.4-7.3-20.6-6.4-6.2-16.2-9.9-34.2-12.9-23.1-3.8-31-7.6-31-14.8 0-4.3 2.9-8 8.3-11 3.7-2 5.6-2.2 17.2-2.2 11.5.1 13.9.4 21 2.9 4.4 1.5 9 3.4 10.2 4.2 2.2 1.4 2.4 1.2 7.3-8.7 2.8-5.6 4.9-10.7 4.7-11.4-.8-1.8-13.4-6.2-22.9-7.9-11.1-1.9-21.8-2.5-30.4-1.6zM738.2 830.1c-29.7 3.9-49.3 25.4-50.9 55.9-1.8 31.6 14.9 55.8 43.5 63.1 18.6 4.7 40.9.2 51.2-10.6l3.5-3.6.5 7.3.5 7.3 13.3.3 13.2.3V831h-28v14.3l-4.3-4c-9.7-9-26.3-13.4-42.5-11.2zm26.3 25.8c11.4 5 18.6 14.9 20.5 27.8 2.5 18-5.4 34.1-19.8 40.6-6.6 2.9-19.4 3.5-26.4 1.2-15.7-5.1-24.8-20.1-23.5-38.7 1.1-15.8 10.7-28.5 24.7-32.5 6.4-1.8 18.6-1 24.5 1.6zM914 830c-13.2 1.4-20.5 4.6-28.7 12.3l-5.3 5V831h-26v119.1l13.8-.3 13.7-.3.5-35c.4-26.5.9-35.8 1.9-38.5 5.4-13.4 15.7-20.3 30.9-20.4l8.3-.1-.3-12.9c-.2-7.6-.7-13-1.3-13.1-.5-.1-3.9.1-7.5.5zM992.8 830c-13.9 1.7-26.1 7.4-35.4 16.5-11.2 11-16.3 22.9-17.1 39.7-.7 13.5.7 20.8 5.9 31.8 7 14.7 19.2 24.7 36.8 30.2 6.5 2 9.5 2.3 22.5 2.2 13.6 0 15.8-.3 23.2-2.7 8.2-2.8 17.8-8.4 22.2-13.1l2.4-2.5-7.3-8.6c-4-4.7-7.5-8.5-7.9-8.5-.4 0-1.8 1.1-3 2.4-3.8 4-14.2 8.5-22 9.5-19.4 2.5-36.1-5.1-42.7-19.2-4.4-9.5-8.7-8.7 44.1-8.7h46.5v-8.8c0-38.5-29.8-64.8-68.2-60.2zm23.6 25c8.7 4.2 16.7 14.5 17.8 23l.3 2.5h-67l.3-2.5c1-7.6 9-18.3 16.7-22.2 6.5-3.4 8.5-3.8 18-3.5 7.1.2 10 .8 13.9 2.7zM1347.5 830.1c-19.9 1.9-35.6 11.8-40.1 25.2-2.5 7.3-2.2 18 .5 24.3 5.5 12.3 14.8 17.2 41.1 21.9 22.7 3.9 26.9 5.5 29 10.4 1.5 3.7.6 7.8-2.3 10.9-7.4 8-38.2 6.7-56.2-2.3-3.8-1.9-6.9-3.4-7-3.2-1.8 2.2-10.2 20.3-9.9 20.9 1 1.5 9.8 5.5 17.9 8.1 24.9 7.8 55.2 5.7 70.5-5 12.9-9 17.7-22.6 13.4-37.4-1.2-4.1-2.8-6.6-6.8-10.5-6.7-6.5-12-8.5-34-12.9-21.5-4.3-23.9-5-27.6-8.1-2.5-2.2-3-3.3-3-7 0-8.3 6.9-12.4 22-13.1 11.3-.6 21.4 1.3 30.5 5.5l6.2 2.9 5.1-10.3c2.9-5.8 5.2-10.6 5.2-10.8 0-.8-10-4.6-17.1-6.6-6.3-1.7-24.9-4.2-28.4-3.8-.5 0-4.6.4-9 .9zM1480.5 829.6c-23.5 3-40.3 13.8-48.8 31.4-5 10.2-6.7 17.7-6.7 29 0 18 5.4 31.8 16.9 43 7.4 7.3 15 11.7 26.1 15.2 6.5 2 9.5 2.3 22.5 2.2 13.5 0 15.8-.3 23-2.7 8.8-2.9 15-6.5 20.9-12l3.8-3.7-4-4.7c-2.3-2.7-5.6-6.5-7.5-8.7l-3.3-3.9-5.5 4.2c-16.1 12.2-42.2 11.3-55.9-2-2.3-2.2-5.2-6.4-6.6-9.2-4.4-9.5-8.7-8.7 44.1-8.7h46.5v-8.3c-.1-34.5-22.2-58.7-56-61-3.6-.2-7.8-.3-9.5-.1zm20.7 25.2c9.1 4.4 17.8 15.9 17.8 23.4v2.8h-32.9c-18.2 0-33.2-.3-33.5-.8-.8-1.3 2.9-10.8 5.8-15 3.2-4.7 9.5-9.4 15.6-11.6 6.7-2.4 21-1.8 27.2 1.2zM1622.8 830.1c-26.7 3-47 19.7-53.3 43.9-2.3 8.5-2.3 23.5-.1 31.9 4.4 17 15.4 30.6 30.6 37.9 28.2 13.5 63 7.5 78-13.6 2.2-3 4-5.9 4-6.3 0-.5-4.6-3.5-10.2-6.8l-10.2-6-5 5.3c-7.9 8.1-12.9 10.1-25.6 10.1-12.2 0-16.9-1.6-24.4-8.5-8.5-7.8-12.5-20.9-10.5-34.5 2.9-20.9 22-34 43.1-29.6 6.7 1.4 16.3 7.4 19.3 12 1.1 1.7 2.4 3.1 2.8 3.1.7 0 19.3-10.5 20.7-11.7 1-.9-3.7-7.7-9-12.7-12.1-11.5-30.4-16.8-50.2-14.5zM1927 830c-13.2 1.4-20.5 4.6-28.7 12.3l-5.3 5V831h-26v119.1l13.8-.3 13.7-.3.5-35c.4-26.5.9-35.8 1.9-38.5 5.4-13.4 15.7-20.3 30.9-20.4l8.3-.1-.3-12.9c-.2-7.6-.7-13-1.3-13.1-.5-.1-3.9.1-7.5.5zM2005.8 830c-13.9 1.7-26.1 7.4-35.4 16.5-11.2 11-16.3 22.9-17.1 39.7-.7 13.5.7 20.8 5.9 31.8 7 14.7 19.2 24.7 36.8 30.2 6.5 2 9.5 2.3 22.5 2.2 13.6 0 15.8-.3 23.2-2.7 8.2-2.8 17.8-8.4 22.2-13.1l2.4-2.5-7.3-8.6c-4-4.7-7.5-8.5-7.9-8.5-.4 0-1.8 1.1-3 2.4-3.8 4-14.2 8.5-22 9.5-19.4 2.5-36.1-5.1-42.7-19.2-4.4-9.5-8.7-8.7 44.1-8.7h46.5v-8.8c0-38.5-29.8-64.8-68.2-60.2zm23.6 25c8.7 4.2 16.7 14.5 17.8 23l.3 2.5h-67l.3-2.5c1-7.6 9-18.3 16.7-22.2 6.5-3.4 8.5-3.8 18-3.5 7.1.2 10 .8 13.9 2.7zM1710 868.5c0 41.7.6 47.9 6.2 58.8 7.5 15 23.8 23.6 44.3 23.7 13.1 0 24.9-4 34.2-11.6l4.2-3.5.3 6.8.3 6.8 13.3.3 13.2.3V831h-28v33.3c0 36.5-.6 41.7-5.8 49.2-3.6 5.1-10.2 10.1-15.5 11.6-2.3.7-7.6 1.3-11.8 1.3-9.1 0-15.2-2.6-20.3-8.5-6.1-7.2-6.6-11.1-6.6-51.2V831h-28v37.5zM2155.3 832.2c.3.7 11.8 27.3 25.7 59.1 20.3 46.9 25 58.4 24.5 60.7-.4 1.6-2.4 5.6-4.5 8.8-5.1 7.9-10.5 10.7-19.4 10-5.9-.5-13.1-3.3-16.8-6.5-1.4-1.3-2.1-.5-7.2 8.8-3.9 7-5.3 10.6-4.6 11.4 1.6 2 11.2 6.4 17.5 8 6.7 1.7 18.9 1.9 25.4.4 11.4-2.6 22.2-11.2 28.4-22.6 1.9-3.6 52.4-118.9 60.4-138.1.4-.9-2.5-1.2-12.9-1.2h-13.3l-18.5 43.1c-10.1 23.6-18.6 43.2-18.9 43.3-.3.2-8.9-19.1-19-43l-18.4-43.4h-14.5c-11.1 0-14.3.3-13.9 1.2z"/>
</svg>
