<svg version="1.1" id="Layer_1" xmlns="http://www.w3.org/2000/svg" x="0" y="0" viewBox="0 0 808.56 281.24" style="enable-background:new 0 0 808.56 281.24" xml:space="preserve">
    <style>
        .st16{fill:#3f4347}
    </style>
    <linearGradient id="SVGID_1_" gradientUnits="userSpaceOnUse" x1="121.625" y1="54.62" x2="121.625" y2="255.491">
        <stop offset="0" style="stop-color:#00b4db"/>
        <stop offset=".503" style="stop-color:#92dfee"/>
        <stop offset="1" style="stop-color:#0177b6"/>
    </linearGradient>
    <path d="M190.48 199.89v-96.15h-26.81V65.08c.01-15.7-6.39-30.01-16.69-40.29A56.895 56.895 0 0 0 106.69 8.1c-15.71 0-30.02 6.4-40.3 16.69a56.901 56.901 0 0 0-16.69 40.3v28.87h19.74v-8.08h-7.18l7.18-10.3V65.09c.01-10.31 4.15-19.56 10.91-26.33 6.77-6.75 16.02-10.9 26.33-10.91 10.31 0 19.56 4.15 26.33 10.91 6.75 6.77 10.9 16.02 10.91 26.33v38.66H22.89v138.69c0 8.45 3.45 16.18 8.99 21.71 5.53 5.54 13.26 9 21.71 8.99h124.52a42.16 42.16 0 0 0 29.88-12.38 42.201 42.201 0 0 0 12.38-29.88v-31h-29.89zm-16.45-79.7v79.7H67.84v42.55c0 3.96-1.58 7.47-4.17 10.08-2.6 2.59-6.11 4.17-10.07 4.17-2.48 0-4.78-.62-6.79-1.72-1.21-.66-2.31-1.49-3.29-2.46-2.59-2.6-4.17-6.11-4.17-10.08V120.19h134.68zm29.88 110.7c0 7.15-2.88 13.55-7.56 18.24-4.69 4.68-11.09 7.55-18.24 7.56H80.77c2.24-4.27 3.52-9.12 3.52-14.25v-26.1h119.62v14.55z" style="fill:url(#SVGID_1_)"/>
    <linearGradient id="SVGID_2_" gradientUnits="userSpaceOnUse" x1="144.812" y1="54.62" x2="144.812" y2="255.491">
        <stop offset="0" style="stop-color:#00b4db"/>
        <stop offset=".503" style="stop-color:#92dfee"/>
        <stop offset="1" style="stop-color:#0177b6"/>
    </linearGradient>
    <path d="M98.34 233.07h92.95a4.11 4.11 0 1 0 0-8.22H98.34a4.11 4.11 0 0 0-4.11 4.11 4.097 4.097 0 0 0 4.11 4.11z" style="fill:url(#SVGID_2_)"/>
    <linearGradient id="SVGID_3_" gradientUnits="userSpaceOnUse" x1="139.817" y1="54.62" x2="139.817" y2="255.491">
        <stop offset="0" style="stop-color:#00b4db"/>
        <stop offset=".503" style="stop-color:#92dfee"/>
        <stop offset="1" style="stop-color:#0177b6"/>
    </linearGradient>
    <path d="M98.34 248.19h82.96a4.11 4.11 0 1 0 0-8.22H98.34a4.11 4.11 0 0 0-4.11 4.11 4.097 4.097 0 0 0 4.11 4.11z" style="fill:url(#SVGID_3_)"/>
    <linearGradient id="SVGID_4_" gradientUnits="userSpaceOnUse" x1="106.686" y1="54.62" x2="106.686" y2="255.491">
        <stop offset="0" style="stop-color:#00b4db"/>
        <stop offset=".503" style="stop-color:#92dfee"/>
        <stop offset="1" style="stop-color:#0177b6"/>
    </linearGradient>
    <path d="m98.9 164.38-6.71 19.4h28.99l-6.71-19.4c4.39-2.65 7.33-7.45 7.33-12.95 0-8.35-6.77-15.12-15.12-15.12s-15.12 6.77-15.12 15.12c0 5.5 2.95 10.3 7.34 12.95z" style="fill:url(#SVGID_4_)"/>
    <linearGradient id="SVGID_5_" gradientUnits="userSpaceOnUse" x1="73.351" y1="248.908" x2="101.707" y2="276.634">
        <stop offset="0" style="stop-color:#29266d"/>
        <stop offset="1" style="stop-color:#29266d;stop-opacity:0"/>
    </linearGradient>
    <path d="M80.77 256.69c-1.45 2.76-3.29 5.29-5.47 7.46-5.53 5.54-13.26 9-21.71 8.99h72.26v-16.45H80.77z" style="fill:url(#SVGID_5_)"/>
    <linearGradient id="SVGID_6_" gradientUnits="userSpaceOnUse" x1="182.258" y1="208.79" x2="182.258" y2="181.246">
        <stop offset="0" style="stop-color:#29266d"/>
        <stop offset="1" style="stop-color:#29266d;stop-opacity:0"/>
    </linearGradient>
    <path style="fill:url(#SVGID_6_)" d="M174.03 171.72h16.45v28.17h-16.45z"/>
    <linearGradient id="SVGID_7_" gradientUnits="userSpaceOnUse" x1="153.798" y1="114.481" x2="153.798" y2="85.681">
        <stop offset="0" style="stop-color:#29266d"/>
        <stop offset="1" style="stop-color:#29266d;stop-opacity:0"/>
    </linearGradient>
    <path style="fill:url(#SVGID_7_)" d="M143.93 74.94h19.74v28.8h-19.74z"/>
    <path class="st16" d="M262.65 99.83h24.82v106.02h-24.82V99.83zM415.03 72.83c8.93 3.97 15.78 9.66 20.55 17.07 4.77 7.42 7.15 16.22 7.15 26.41 0 10.06-2.38 18.83-7.15 26.31-4.76 7.48-11.61 13.21-20.55 17.17-8.93 3.97-19.43 5.96-31.47 5.96h-31.37v40.1h-25.81V66.87h57.18c12.04 0 22.53 1.99 31.47 5.96zm-7.05 63.93c5.82-4.77 8.74-11.58 8.74-20.45s-2.91-15.69-8.74-20.45c-5.83-4.77-14.36-7.15-25.61-7.15h-30.18v55.19h30.18c11.24.01 19.78-2.37 25.61-7.14zM571.78 99.83v106.02h-23.62v-13.7c-4.1 5.03-9.17 8.81-15.19 11.32-6.03 2.51-12.68 3.77-19.95 3.77-10.32 0-19.56-2.25-27.7-6.75s-14.49-10.85-19.06-19.06c-4.57-8.21-6.85-17.73-6.85-28.59 0-10.85 2.28-20.35 6.85-28.49 4.57-8.14 10.92-14.46 19.06-18.96 8.14-4.5 17.37-6.75 27.7-6.75 6.88 0 13.2 1.19 18.96 3.57 5.76 2.38 10.75 5.89 14.99 10.52v-12.9h24.81zm-33.36 77.04c5.96-6.09 8.93-14.1 8.93-24.02 0-9.93-2.98-17.93-8.93-24.02-5.96-6.08-13.5-9.13-22.63-9.13-9.13 0-16.65 3.05-22.54 9.13-5.89 6.09-8.83 14.1-8.83 24.02 0 9.93 2.94 17.94 8.83 24.02 5.89 6.09 13.4 9.13 22.54 9.13 9.13 0 16.68-3.04 22.63-9.13zM619.43 200.3c-8.74-4.63-15.56-11.08-20.45-19.36-4.9-8.27-7.35-17.64-7.35-28.1 0-10.45 2.45-19.78 7.35-27.99 4.89-8.21 11.68-14.63 20.35-19.26 8.67-4.63 18.56-6.95 29.68-6.95 10.45 0 19.62 2.12 27.5 6.35 7.87 4.24 13.8 10.32 17.77 18.27l-19.06 11.12c-3.05-4.89-6.85-8.57-11.42-11.02-4.57-2.45-9.56-3.67-14.99-3.67-9.27 0-16.94 3.01-23.03 9.03s-9.13 14.07-9.13 24.12c0 10.06 3.01 18.1 9.03 24.12 6.02 6.03 13.73 9.03 23.13 9.03 5.43 0 10.42-1.22 14.99-3.67s8.37-6.12 11.42-11.02l19.06 11.12c-4.1 7.94-10.09 14.07-17.97 18.36-7.88 4.3-16.97 6.45-27.3 6.45-10.99.02-20.85-2.3-29.58-6.93zM783.42 200.1c-2.91 2.38-6.45 4.17-10.62 5.36-4.17 1.19-8.57 1.79-13.21 1.79-11.65 0-20.65-3.04-27-9.13-6.36-6.09-9.53-14.96-9.53-26.61v-51.03h-17.47v-19.86h17.47V76.4h24.82v24.22h28.39v19.86h-28.39v50.43c0 5.16 1.26 9.1 3.77 11.81 2.51 2.71 6.16 4.07 10.92 4.07 5.56 0 10.19-1.46 13.9-4.37l6.95 17.68zM262.65 225.04h6.94v37.37h-6.94v-37.37zM304.58 226.64c2.4 1.07 4.24 2.6 5.53 4.59 1.28 1.99 1.92 4.36 1.92 7.1 0 2.71-.64 5.06-1.92 7.07-1.28 2.01-3.12 3.55-5.53 4.62-2.4 1.07-5.22 1.6-8.46 1.6h-8.43v10.79h-6.94v-37.37h15.37c3.24 0 6.06.53 8.46 1.6zm-1.89 17.19c1.56-1.28 2.35-3.11 2.35-5.5s-.78-4.22-2.35-5.5c-1.57-1.28-3.86-1.92-6.89-1.92h-8.11v14.84h8.11c3.02 0 5.32-.64 6.89-1.92zM337.76 261.88c-2.21-.61-3.97-1.37-5.28-2.3l2.56-5.07c1.28.85 2.82 1.54 4.62 2.06 1.8.52 3.57.77 5.32.77 3.98 0 5.98-1.05 5.98-3.15 0-1-.51-1.69-1.52-2.08-1.01-.39-2.64-.76-4.88-1.12-2.35-.35-4.26-.76-5.74-1.23a8.697 8.697 0 0 1-3.84-2.43c-1.09-1.16-1.63-2.77-1.63-4.83 0-2.71 1.13-4.87 3.39-6.49 2.26-1.62 5.31-2.43 9.15-2.43 1.96 0 3.91.22 5.87.67 1.96.44 3.56 1.04 4.81 1.79l-2.56 5.07c-2.42-1.42-5.14-2.13-8.17-2.13-1.96 0-3.45.29-4.46.88-1.02.59-1.52 1.36-1.52 2.32 0 1.07.54 1.82 1.63 2.27 1.08.44 2.77.86 5.04 1.25 2.28.35 4.15.76 5.61 1.23 1.46.46 2.71 1.25 3.76 2.35 1.05 1.11 1.57 2.67 1.57 4.7 0 2.67-1.16 4.8-3.47 6.41-2.31 1.6-5.46 2.4-9.45 2.4-2.33 0-4.58-.31-6.79-.91zM389.12 236.73c2.17 2.1 3.26 5.21 3.26 9.34v16.33h-6.67v-15.48c0-2.49-.59-4.37-1.76-5.63-1.18-1.26-2.85-1.9-5.02-1.9-2.46 0-4.4.74-5.82 2.22-1.42 1.48-2.13 3.6-2.13 6.38v14.41h-6.67v-39.6h6.67v14.41c1.11-1.17 2.46-2.07 4.09-2.7 1.62-.62 3.42-.93 5.42-.93 3.57 0 6.45 1.05 8.63 3.15zM430.06 233.9v28.51h-6.35v-3.68c-1.1 1.35-2.46 2.37-4.08 3.04-1.62.67-3.41 1.02-5.37 1.02-2.77 0-5.26-.61-7.45-1.82-2.19-1.21-3.9-2.92-5.13-5.12-1.23-2.21-1.84-4.77-1.84-7.69 0-2.92.62-5.47 1.84-7.66 1.23-2.19 2.94-3.89 5.13-5.1 2.19-1.21 4.67-1.81 7.45-1.81 1.85 0 3.55.32 5.1.96 1.55.64 2.89 1.58 4.03 2.83v-3.47h6.67zm-8.97 20.72c1.6-1.64 2.4-3.79 2.4-6.46s-.8-4.82-2.4-6.46c-1.6-1.64-3.63-2.45-6.09-2.45s-4.48.82-6.06 2.45c-1.58 1.64-2.38 3.79-2.38 6.46s.79 4.82 2.38 6.46c1.58 1.64 3.6 2.45 6.06 2.45 2.46 0 4.49-.82 6.09-2.45zM456.38 233.58v6.35a8.24 8.24 0 0 0-1.55-.16c-2.6 0-4.63.75-6.09 2.27-1.46 1.51-2.19 3.69-2.19 6.54v13.83h-6.67V233.9h6.35v4.16c1.93-2.98 5.31-4.48 10.15-4.48zM489.53 250.29h-22.37c.39 2.1 1.41 3.76 3.07 4.99 1.65 1.23 3.71 1.84 6.17 1.84 3.13 0 5.71-1.03 7.74-3.1l3.58 4.11c-1.28 1.53-2.9 2.69-4.86 3.47-1.96.78-4.16 1.18-6.62 1.18-3.13 0-5.89-.62-8.28-1.87-2.38-1.25-4.22-2.98-5.53-5.2-1.3-2.22-1.95-4.74-1.95-7.56 0-2.77.63-5.27 1.9-7.5 1.26-2.22 3.02-3.96 5.26-5.21 2.24-1.24 4.77-1.87 7.58-1.87 2.77 0 5.26.61 7.45 1.84 2.19 1.23 3.9 2.95 5.13 5.18 1.23 2.22 1.84 4.8 1.84 7.71 0 .48-.04 1.14-.11 1.99zm-19.73-9.47c-1.48 1.26-2.38 2.95-2.7 5.05h16.18c-.29-2.07-1.16-3.74-2.62-5.02-1.46-1.28-3.27-1.92-5.44-1.92-2.13-.01-3.94.62-5.42 1.89zM525.03 222.8v39.61h-6.41v-3.68c-1.1 1.35-2.46 2.37-4.08 3.04-1.62.67-3.41 1.02-5.37 1.02-2.74 0-5.21-.61-7.39-1.82-2.19-1.21-3.91-2.93-5.15-5.15-1.25-2.22-1.87-4.78-1.87-7.66s.62-5.43 1.87-7.63c1.25-2.21 2.96-3.91 5.15-5.13 2.19-1.21 4.65-1.81 7.39-1.81 1.89 0 3.61.32 5.18.96 1.57.64 2.9 1.6 4 2.88V222.8h6.68zm-10.73 33.18c1.28-.73 2.3-1.77 3.04-3.12s1.12-2.92 1.12-4.7c0-1.78-.38-3.34-1.12-4.7s-1.76-2.4-3.04-3.13-2.72-1.09-4.32-1.09-3.04.36-4.32 1.09c-1.28.73-2.3 1.77-3.04 3.13s-1.12 2.92-1.12 4.7c0 1.78.38 3.35 1.12 4.7s1.76 2.4 3.04 3.12c1.28.73 2.72 1.09 4.32 1.09s3.04-.36 4.32-1.09zM552.69 261.88c-2.21-.61-3.97-1.37-5.28-2.3l2.56-5.07c1.28.85 2.82 1.54 4.62 2.06 1.8.52 3.57.77 5.32.77 3.98 0 5.98-1.05 5.98-3.15 0-1-.51-1.69-1.52-2.08-1.01-.39-2.64-.76-4.88-1.12-2.35-.35-4.26-.76-5.74-1.23a8.697 8.697 0 0 1-3.84-2.43c-1.09-1.16-1.63-2.77-1.63-4.83 0-2.71 1.13-4.87 3.39-6.49 2.26-1.62 5.31-2.43 9.15-2.43 1.96 0 3.91.22 5.87.67 1.96.44 3.56 1.04 4.81 1.79l-2.56 5.07c-2.42-1.42-5.14-2.13-8.17-2.13-1.96 0-3.45.29-4.46.88-1.02.59-1.52 1.36-1.52 2.32 0 1.07.54 1.82 1.63 2.27 1.08.44 2.77.86 5.04 1.25 2.28.35 4.15.76 5.61 1.23 1.46.46 2.71 1.25 3.76 2.35 1.05 1.11 1.57 2.67 1.57 4.7 0 2.67-1.16 4.8-3.47 6.41-2.31 1.6-5.46 2.4-9.45 2.4-2.33 0-4.58-.31-6.79-.91zM605.92 250.29h-22.37c.39 2.1 1.41 3.76 3.07 4.99 1.65 1.23 3.71 1.84 6.17 1.84 3.13 0 5.71-1.03 7.74-3.1l3.58 4.11c-1.28 1.53-2.9 2.69-4.86 3.47-1.96.78-4.16 1.18-6.62 1.18-3.13 0-5.89-.62-8.28-1.87-2.38-1.25-4.22-2.98-5.53-5.2-1.3-2.22-1.95-4.74-1.95-7.56 0-2.77.63-5.27 1.9-7.5 1.26-2.22 3.02-3.96 5.26-5.21 2.24-1.24 4.77-1.87 7.58-1.87 2.77 0 5.26.61 7.45 1.84 2.19 1.23 3.9 2.95 5.13 5.18 1.23 2.22 1.84 4.8 1.84 7.71-.01.48-.04 1.14-.11 1.99zm-19.73-9.47c-1.48 1.26-2.38 2.95-2.7 5.05h16.18c-.29-2.07-1.16-3.74-2.62-5.02-1.46-1.28-3.27-1.92-5.44-1.92-2.14-.01-3.95.62-5.42 1.89zM618.62 260.92c-2.35-1.25-4.18-2.98-5.5-5.2-1.32-2.22-1.98-4.74-1.98-7.56 0-2.81.66-5.32 1.98-7.53 1.32-2.21 3.14-3.93 5.47-5.18 2.33-1.24 4.99-1.87 7.98-1.87 2.81 0 5.28.57 7.39 1.71 2.12 1.14 3.71 2.77 4.78 4.91l-5.13 2.99c-.82-1.32-1.84-2.3-3.07-2.96-1.23-.66-2.57-.98-4.03-.98-2.49 0-4.56.81-6.19 2.43-1.64 1.62-2.46 3.78-2.46 6.49 0 2.71.81 4.87 2.43 6.49s3.69 2.43 6.22 2.43c1.46 0 2.8-.33 4.03-.99 1.23-.66 2.25-1.65 3.07-2.96l5.13 2.99c-1.11 2.13-2.72 3.78-4.83 4.94s-4.56 1.73-7.34 1.73c-2.95-.01-5.6-.64-7.95-1.88zM673.18 233.9v28.51h-6.35v-3.63c-1.07 1.28-2.4 2.27-4 2.96-1.6.7-3.33 1.04-5.18 1.04-3.81 0-6.81-1.06-9-3.18-2.19-2.12-3.28-5.26-3.28-9.42V233.9h6.67v15.37c0 2.56.58 4.48 1.73 5.74s2.8 1.9 4.94 1.9c2.38 0 4.28-.74 5.68-2.22 1.41-1.48 2.11-3.6 2.11-6.38V233.9h6.68zM699.5 233.58v6.35a8.24 8.24 0 0 0-1.55-.16c-2.6 0-4.63.75-6.09 2.27-1.46 1.51-2.19 3.69-2.19 6.54v13.83H683V233.9h6.35v4.16c1.93-2.98 5.31-4.48 10.15-4.48zM732.65 250.29h-22.37c.39 2.1 1.41 3.76 3.07 4.99 1.65 1.23 3.71 1.84 6.17 1.84 3.13 0 5.71-1.03 7.74-3.1l3.58 4.11c-1.28 1.53-2.9 2.69-4.86 3.47-1.96.78-4.16 1.18-6.62 1.18-3.13 0-5.89-.62-8.28-1.87-2.38-1.25-4.22-2.98-5.53-5.2-1.3-2.22-1.95-4.74-1.95-7.56 0-2.77.63-5.27 1.9-7.5 1.26-2.22 3.02-3.96 5.26-5.21 2.24-1.24 4.77-1.87 7.58-1.87 2.77 0 5.26.61 7.45 1.84 2.19 1.23 3.9 2.95 5.13 5.18 1.23 2.22 1.84 4.8 1.84 7.71 0 .48-.04 1.14-.11 1.99zm-19.72-9.47c-1.48 1.26-2.38 2.95-2.7 5.05h16.18c-.29-2.07-1.16-3.74-2.62-5.02-1.46-1.28-3.27-1.92-5.44-1.92-2.14-.01-3.95.62-5.42 1.89zM740.23 222.8h6.67v39.61h-6.67V222.8zM783.42 233.9l-13.35 30.8c-1.25 3.09-2.76 5.27-4.54 6.54-1.78 1.26-3.93 1.89-6.46 1.89-1.43 0-2.83-.23-4.22-.69-1.39-.46-2.53-1.11-3.42-1.92l2.67-4.91c.64.61 1.39 1.09 2.27 1.44.87.35 1.75.53 2.64.53 1.17 0 2.14-.3 2.91-.91.76-.61 1.47-1.62 2.11-3.04l.48-1.12-12.44-28.61h6.94l8.97 21.09L777 233.9h6.42z"/>
    <linearGradient id="SVGID_8_" gradientUnits="userSpaceOnUse" x1="271.124" y1="48.518" x2="280.292" y2="90.692">
        <stop offset=".095" style="stop-color:#92dfee"/>
        <stop offset="1" style="stop-color:#0177b6"/>
    </linearGradient>
    <path d="M263.84 77.93c-3.05-2.84-4.57-6.39-4.57-10.62 0-4.23 1.52-7.77 4.57-10.62 3.04-2.84 6.82-4.27 11.32-4.27s8.27 1.36 11.31 4.07c3.04 2.71 4.57 6.12 4.57 10.22 0 4.37-1.49 8.04-4.47 11.02-2.98 2.98-6.79 4.47-11.42 4.47-4.49 0-8.27-1.42-11.31-4.27z" style="fill:url(#SVGID_8_)"/>
</svg>
