<svg width="16" height="16" viewBox="0 0 16 16" fill="none" xmlns="http://www.w3.org/2000/svg">
<path fill-rule="evenodd" clip-rule="evenodd" d="M8.44598 14.6523C6.85982 14.6523 5.56521 13.4031 5.49253 11.8349L5.48931 11.6957L5.48931 11.0737C5.48931 10.7975 5.71317 10.5737 5.98931 10.5737C6.24244 10.5737 6.45164 10.7618 6.48475 11.0058L6.48931 11.0737L6.48931 11.6957C6.48931 12.7376 7.30399 13.5895 8.33102 13.649L8.44598 13.6523L11.696 13.6523C12.7373 13.6523 13.5891 12.8376 13.6487 11.8106L13.652 11.6957L13.652 4.27567C13.652 3.23382 12.8374 2.38186 11.8109 2.32233L11.696 2.31901L8.43931 2.31901C7.40107 2.31901 6.55195 3.13074 6.49262 4.15383L6.48931 4.26834L6.48931 4.89701C6.48931 5.17315 6.26545 5.39701 5.98931 5.39701C5.73618 5.39701 5.52698 5.20891 5.49388 4.96486L5.48931 4.89701L5.48931 4.26834C5.48931 2.68752 6.73385 1.39696 8.29641 1.32241L8.43931 1.31901L11.696 1.31901C13.2816 1.31901 14.5761 2.56841 14.6488 4.13651L14.652 4.27567L14.652 11.6957C14.652 13.2817 13.4028 14.5764 11.8351 14.6491L11.696 14.6523L8.44598 14.6523ZM1.11447 8.34685C1.01947 8.25583 0.960312 8.1277 0.960312 7.98574C0.960312 7.8423 1.02072 7.71296 1.11748 7.62178L3.05969 5.68753C3.25535 5.49267 3.57193 5.49332 3.76679 5.68899C3.94394 5.86686 3.9595 6.14467 3.81387 6.34011L3.76534 6.39609L2.67196 7.48574L9.48765 7.48574C9.76379 7.48574 9.98765 7.7096 9.98765 7.98574C9.98765 8.23888 9.79955 8.44807 9.55549 8.48118L9.48765 8.48575L2.67084 8.48575L3.76528 9.57481C3.94318 9.75193 3.95994 10.0297 3.81514 10.2257L3.76685 10.2819C3.58974 10.4598 3.312 10.4766 3.11593 10.3318L3.05975 10.2835L1.11447 8.34685Z" fill="#B4B8D7"/>
</svg>
